<svg xmlns="http://www.w3.org/2000/svg" width="30.218" height="33.501" viewBox="0 0 30.218 33.501"><g transform="translate(0)"><g opacity="0.42"><g transform="translate(0)"><path d="M11.3,21.886H4.739a.6.6,0,1,1,0-1.207H11.7a10.721,10.721,0,0,1,1.532-2.642H4.739a.6.6,0,1,1,0-1.207h9.638a10.39,10.39,0,0,1,6.83-2.6c.249,0,.453.023.755.045v-6.2H17.433A3.181,3.181,0,0,1,14.264,4.9V0H2.687A2.7,2.7,0,0,0,0,2.724V25.758a2.675,2.675,0,0,0,2.687,2.694h9.094a10.309,10.309,0,0,1-.483-6.566Zm-6.559-8.83h7.645a.6.6,0,0,1,0,1.208H4.739a.6.6,0,0,1,0-1.208Zm0,0" transform="translate(0)" fill="#0b181c"/><path d="M195.179,236.336a9.019,9.019,0,1,0,9.019,9.019A9.028,9.028,0,0,0,195.179,236.336ZM198.25,246h-2.46v2.46a.6.6,0,0,1-1.207,0V246h-2.5a.6.6,0,1,1,0-1.207h2.5v-2.5a.6.6,0,0,1,1.207,0v2.5h2.46a.6.6,0,0,1,0,1.207Zm0,0" transform="translate(-173.979 -220.872)" fill="#0b181c"/><path d="M238.411,19.912h3.7l-5.66-5.955v3.985A1.97,1.97,0,0,0,238.411,19.912Zm0,0" transform="translate(-220.978 -13.044)" fill="#0b181c"/></g></g></g></svg>