<svg xmlns="http://www.w3.org/2000/svg" width="30.124" height="30.8" viewBox="0 0 30.124 30.8"><g opacity="0.42"><g transform="translate(0)"><path d="M11,12h6.16a2.053,2.053,0,0,1-2.053,2.053H13.053A2.053,2.053,0,0,1,11,12Z" transform="translate(-5.353 -5.84)" fill="#0b181c"/><path d="M23,12h6.16a2.053,2.053,0,0,1-2.053,2.053H25.053A2.053,2.053,0,0,1,23,12Z" transform="translate(-11.193 -5.84)" fill="#0b181c"/><path d="M35,12h6.16a2.053,2.053,0,0,1-2.053,2.053H37.053A2.053,2.053,0,0,1,35,12Z" transform="translate(-17.033 -5.84)" fill="#0b181c"/><path d="M29.775,6.16a2.066,2.066,0,0,1-.6,1.453,2.093,2.093,0,0,1-.939.534,1.877,1.877,0,0,1-.513.067h-1.54A2.053,2.053,0,0,1,24.128,6.16h3.593a.513.513,0,0,0,0-1.027H24.477l-.9-2.243a.514.514,0,1,0-.955.38l.744,1.863H18.481V4.107a.513.513,0,1,0-1.027,0V5.134H12.321V4.107a.513.513,0,1,0-1.027,0V5.134H6.407L7.151,3.27A.514.514,0,0,0,6.2,2.89L5.3,5.134H2.053a.513.513,0,0,0,0,1.027H5.647A2.053,2.053,0,0,1,3.593,8.214H2.053a1.877,1.877,0,0,1-.513-.067A2.093,2.093,0,0,1,.6,7.613,2.066,2.066,0,0,1,0,6.16a1.764,1.764,0,0,1,.277-.945L2.839,1.191A2.553,2.553,0,0,1,5,0H24.774a2.553,2.553,0,0,1,2.161,1.191L29.5,5.216A1.764,1.764,0,0,1,29.775,6.16Z" transform="translate(0 0)" fill="#0b181c"/><rect width="30" height="3" rx="1.5" transform="translate(0.124 18.8)" fill="#0b181c"/><rect width="26" height="6" rx="0.5" transform="translate(2.124 21.8)" fill="#0b181c"/><path d="M5.053,17.961v8.984A.257.257,0,0,1,4.8,27.2H3.257A.257.257,0,0,1,3,26.945V17.92a3.3,3.3,0,0,0,.513.041Z" transform="translate(-1.46 -8.721)" fill="#0b181c"/><path d="M53.053,17.92v9.025a.257.257,0,0,1-.257.257h-1.54A.257.257,0,0,1,51,26.945V17.961h1.54A3.2,3.2,0,0,0,53.053,17.92Z" transform="translate(-24.819 -8.721)" fill="#0b181c"/><path d="M11.513,30h9.24a.513.513,0,0,1,.513.513v2.31a.257.257,0,0,1-.257.257H11.257A.257.257,0,0,1,11,32.823v-2.31A.513.513,0,0,1,11.513,30Z" transform="translate(-5.353 -14.599)" fill="#0b181c"/><rect width="4" height="2" rx="1" transform="translate(6.124 10.8)" fill="#0b181c"/><rect width="3" height="2" rx="0.5" transform="translate(6.124 13.8)" fill="#0b181c"/><path d="M40,28l.485,3.882a.257.257,0,0,0,.257.225h1.6a.257.257,0,0,0,.257-.225L43.08,28Z" transform="translate(-19.466 -13.626)" fill="#0b181c"/><rect width="30" height="2" rx="1" transform="translate(0.124 28.8)" fill="#0b181c"/></g></g></svg>